<svg width="37" height="30" viewBox="0 0 37 30" fill="none" xmlns="http://www.w3.org/2000/svg">
<path d="M18.4263 0C11.6454 0 5.35591 1.5 0 4.0875L2.60425 7.125C7.17397 4.9125 12.579 3.7125 18.4263 3.7125C24.3227 3.7125 29.826 4.875 34.3958 7.125L37 4.0875C31.6441 1.4625 25.2072 0 18.4263 0ZM18.4263 11.25C14.5445 11.25 11.0558 12.1125 7.96016 13.6125L10.5644 16.7625C12.8738 15.6375 15.4781 15 18.3772 15C21.2762 15 24.077 15.6375 26.3865 16.7625L28.9907 13.6125C25.9442 12.15 22.259 11.25 18.3772 11.25H18.4263ZM18.4263 22.5C15.7238 22.5 13.5126 24.1875 13.5126 26.25C13.5126 28.3125 15.7238 30 18.4263 30C21.1288 30 23.34 28.3125 23.34 26.25C23.34 24.1875 21.1288 22.5 18.4263 22.5Z" fill="#26E322"/>
</svg>
