<svg width="37" height="37" viewBox="0 0 37 37" fill="none" xmlns="http://www.w3.org/2000/svg">
<path d="M10.5223 14.8016C10.0094 13.5837 9.73384 12.2646 9.71289 10.9266C9.95629 8.67453 10.9563 6.59758 12.523 5.09021C14.0897 3.58284 16.114 2.75006 18.2113 2.75006C20.3086 2.75006 22.3329 3.58284 23.8996 5.09021C25.4663 6.59758 26.4664 8.67453 26.7098 10.9266C26.6763 12.2629 26.4013 13.5793 25.9004 14.8016" fill="white"/>
<path d="M10.5223 14.8016C10.0094 13.5837 9.73384 12.2646 9.71289 10.9266C9.95629 8.67453 10.9563 6.59758 12.523 5.09021C14.0897 3.58284 16.114 2.75006 18.2113 2.75006C20.3086 2.75006 22.3329 3.58284 23.8996 5.09021C25.4663 6.59758 26.4664 8.67453 26.7098 10.9266C26.6763 12.2629 26.4013 13.5793 25.9004 14.8016" stroke="#FC8019" stroke-width="4.09676" stroke-linecap="round" stroke-linejoin="round"/>
<path d="M9.25002 25.4264C7.30049 25.045 5.53718 23.9343 4.26885 22.2889C3.00051 20.6435 2.30799 18.5682 2.31252 16.4264C2.31252 11.4264 5.43441 8.30139 10.0594 8.30139" fill="white"/>
<path d="M9.25002 25.4264C7.30049 25.045 5.53718 23.9343 4.26885 22.2889C3.00051 20.6435 2.30799 18.5682 2.31252 16.4264C2.31252 11.4264 5.43441 8.30139 10.0594 8.30139" stroke="#FC8019" stroke-width="4.09676" stroke-linecap="round" stroke-linejoin="round"/>
<path d="M26.2471 8.30139C30.9877 8.30139 34.1096 11.4264 34.1096 16.4264C34.1141 18.5682 33.4216 20.6435 32.1532 22.2889C30.8849 23.9343 29.1216 25.045 27.1721 25.4264" fill="white"/>
<path d="M26.2471 8.30139C30.9877 8.30139 34.1096 11.4264 34.1096 16.4264C34.1141 18.5682 33.4216 20.6435 32.1532 22.2889C30.8849 23.9343 29.1216 25.045 27.1721 25.4264" stroke="#FC8019" stroke-width="4.09676" stroke-linecap="round" stroke-linejoin="round"/>
<path d="M9.25 25.4263V34.9263H27.0563V25.4263" fill="white"/>
<path d="M9.25 25.4263V34.9263H27.0563V25.4263" stroke="#FC8019" stroke-width="4.09676" stroke-linecap="round" stroke-linejoin="round"/>
<path d="M9.25 30.1765H27.0563" stroke="#FC8019" stroke-width="4.09676" stroke-linecap="round" stroke-linejoin="round"/>
<path d="M18.1533 30.1764V25.1764" stroke="#FC8019" stroke-width="4.09676" stroke-linecap="round" stroke-linejoin="round"/>
</svg>
