<svg width="37" height="40" viewBox="0 0 37 40" fill="none" xmlns="http://www.w3.org/2000/svg">
<path d="M10.5219 15.8015C10.009 14.5836 9.73347 13.2645 9.71252 11.9265C9.95592 9.67447 10.9559 7.59752 12.5226 6.09015C14.0893 4.58277 16.1136 3.75 18.2109 3.75C20.3082 3.75 22.3325 4.58277 23.8992 6.09015C25.466 7.59752 26.466 9.67447 26.7094 11.9265C26.6759 13.2629 26.401 14.5793 25.9 15.8015" fill="white"/>
<path d="M10.5219 15.8015C10.009 14.5836 9.73347 13.2645 9.71252 11.9265C9.95592 9.67447 10.9559 7.59752 12.5226 6.09015C14.0893 4.58277 16.1136 3.75 18.2109 3.75C20.3082 3.75 22.3325 4.58277 23.8992 6.09015C25.466 7.59752 26.466 9.67447 26.7094 11.9265C26.6759 13.2629 26.401 14.5793 25.9 15.8015" stroke="#9F9F9E" stroke-width="4.09676" stroke-linecap="round" stroke-linejoin="round"/>
<path d="M9.25002 26.4263C7.30049 26.0448 5.53718 24.9342 4.26885 23.2888C3.00051 21.6434 2.30799 19.5681 2.31252 17.4263C2.31252 12.4263 5.43441 9.30127 10.0594 9.30127" fill="white"/>
<path d="M9.25002 26.4263C7.30049 26.0448 5.53718 24.9342 4.26885 23.2888C3.00051 21.6434 2.30799 19.5681 2.31252 17.4263C2.31252 12.4263 5.43441 9.30127 10.0594 9.30127" stroke="#9F9F9E" stroke-width="4.09676" stroke-linecap="round" stroke-linejoin="round"/>
<path d="M26.2469 9.30127C30.9876 9.30127 34.1094 12.4263 34.1094 17.4263C34.114 19.5681 33.4214 21.6434 32.1531 23.2888C30.8848 24.9342 29.1215 26.0448 27.1719 26.4263" fill="white"/>
<path d="M26.2469 9.30127C30.9876 9.30127 34.1094 12.4263 34.1094 17.4263C34.114 19.5681 33.4214 21.6434 32.1531 23.2888C30.8848 24.9342 29.1215 26.0448 27.1719 26.4263" stroke="#9F9F9E" stroke-width="4.09676" stroke-linecap="round" stroke-linejoin="round"/>
<path d="M9.25012 26.4263V35.9263H27.0564V26.4263" fill="white"/>
<path d="M9.25012 26.4263V35.9263H27.0564V26.4263" stroke="#9F9F9E" stroke-width="4.09676" stroke-linecap="round" stroke-linejoin="round"/>
<path d="M9.25012 31.1763H27.0564" stroke="#9F9F9E" stroke-width="4.09676" stroke-linecap="round" stroke-linejoin="round"/>
<path d="M18.1532 31.1763V26.1763" stroke="#9F9F9E" stroke-width="4.09676" stroke-linecap="round" stroke-linejoin="round"/>
</svg>
