<svg width="37" height="37" viewBox="0 0 37 37" fill="none" xmlns="http://www.w3.org/2000/svg">
<path d="M10.5219 14.8015C10.009 13.5836 9.73347 12.2645 9.71252 10.9265C9.95592 8.67447 10.9559 6.59752 12.5226 5.09015C14.0893 3.58277 16.1136 2.75 18.2109 2.75C20.3082 2.75 22.3325 3.58277 23.8992 5.09015C25.466 6.59752 26.466 8.67447 26.7094 10.9265C26.6759 12.2629 26.401 13.5793 25.9 14.8015" fill="white"/>
<path d="M10.5219 14.8015C10.009 13.5836 9.73347 12.2645 9.71252 10.9265C9.95592 8.67447 10.9559 6.59752 12.5226 5.09015C14.0893 3.58277 16.1136 2.75 18.2109 2.75C20.3082 2.75 22.3325 3.58277 23.8992 5.09015C25.466 6.59752 26.466 8.67447 26.7094 10.9265C26.6759 12.2629 26.401 13.5793 25.9 14.8015" stroke="#9F9F9E" stroke-width="4.09676" stroke-linecap="round" stroke-linejoin="round"/>
<path d="M9.25002 25.4265C7.30049 25.0451 5.53718 23.9345 4.26885 22.2891C3.00051 20.6437 2.30799 18.5683 2.31252 16.4265C2.31252 11.4265 5.43441 8.30151 10.0594 8.30151" fill="white"/>
<path d="M9.25002 25.4265C7.30049 25.0451 5.53718 23.9345 4.26885 22.2891C3.00051 20.6437 2.30799 18.5683 2.31252 16.4265C2.31252 11.4265 5.43441 8.30151 10.0594 8.30151" stroke="#9F9F9E" stroke-width="4.09676" stroke-linecap="round" stroke-linejoin="round"/>
<path d="M26.2469 8.30151C30.9876 8.30151 34.1094 11.4265 34.1094 16.4265C34.114 18.5683 33.4214 20.6437 32.1531 22.2891C30.8848 23.9345 29.1215 25.0451 27.1719 25.4265" fill="white"/>
<path d="M26.2469 8.30151C30.9876 8.30151 34.1094 11.4265 34.1094 16.4265C34.114 18.5683 33.4214 20.6437 32.1531 22.2891C30.8848 23.9345 29.1215 25.0451 27.1719 25.4265" stroke="#9F9F9E" stroke-width="4.09676" stroke-linecap="round" stroke-linejoin="round"/>
<path d="M9.25012 25.4263V34.9263H27.0564V25.4263" fill="white"/>
<path d="M9.25012 25.4263V34.9263H27.0564V25.4263" stroke="#9F9F9E" stroke-width="4.09676" stroke-linecap="round" stroke-linejoin="round"/>
<path d="M9.25012 30.1763H27.0564" stroke="#9F9F9E" stroke-width="4.09676" stroke-linecap="round" stroke-linejoin="round"/>
<path d="M18.1532 30.1763V25.1763" stroke="#9F9F9E" stroke-width="4.09676" stroke-linecap="round" stroke-linejoin="round"/>
</svg>
