<svg width="31" height="40" viewBox="0 0 31 40" fill="none" xmlns="http://www.w3.org/2000/svg">
<path d="M15.1771 0C11.1212 0 7.83333 3.98746 7.83333 8.90625C7.83333 13.825 11.1212 17.8125 15.1771 17.8125C19.2329 17.8125 22.5208 13.825 22.5208 8.90625C22.5208 3.98746 19.2329 0 15.1771 0Z" fill="#9E9F9E"/>
<path d="M7.34375 22.5625C3.28791 22.5625 0 26.55 0 31.4688V34.2909C0 36.0798 1.06902 37.6052 2.52482 37.8934C10.9042 39.5525 19.45 39.5525 27.8293 37.8934C29.2851 37.6052 30.3542 36.0798 30.3542 34.2909V31.4688C30.3542 26.55 27.0663 22.5625 23.0104 22.5625H22.3429C21.9816 22.5625 21.6226 22.6318 21.2791 22.7678L19.5841 23.439C16.7205 24.573 13.6337 24.573 10.77 23.439L9.07506 22.7678C8.73161 22.6318 8.37258 22.5625 8.01128 22.5625H7.34375Z" fill="#9E9F9E"/>
</svg>
