<svg width="32" height="28" viewBox="0 0 32 28" fill="none" xmlns="http://www.w3.org/2000/svg">
<path d="M23.7948 12.8253C22.8589 12.8253 22.1003 13.4891 22.1003 14.308C22.1003 15.1269 22.8589 15.7907 23.7948 15.7907C24.7307 15.7907 25.4893 15.1269 25.4893 14.308C25.4893 13.4891 24.7307 12.8253 23.7948 12.8253Z" fill="#7E7E7E"/>
<path fill-rule="evenodd" clip-rule="evenodd" d="M5.38961 9.40356L8.20506 9.12975V4.41889C8.20506 3.65584 8.86939 3.01842 9.73776 2.94828C13.9037 2.6118 18.0962 2.6118 22.2621 2.94828C23.1305 3.01842 23.7948 3.65584 23.7948 4.41889V9.12974L26.6103 9.40356C27.6492 9.50459 28.5062 10.161 28.758 11.0487C29.525 13.7518 29.525 16.578 28.758 19.2811L28.5096 20.1567C28.397 20.5534 27.99 20.832 27.5228 20.832H23.7948V23.5993C23.7948 24.3372 23.1558 24.955 22.3167 25.0284C18.116 25.396 13.8838 25.396 9.68312 25.0284C8.84404 24.955 8.20506 24.3372 8.20506 23.5993V20.832H4.47712C4.00996 20.832 3.60292 20.5534 3.49036 20.1567L3.24189 19.2811C2.47487 16.578 2.47487 13.7518 3.24189 11.0487C3.49376 10.161 4.35077 9.50459 5.38961 9.40356ZM21.7613 8.95785C17.9268 8.68272 14.073 8.68272 10.2385 8.95785V4.69532C14.0721 4.40181 17.9277 4.40181 21.7613 4.69532V8.95785ZM21.7613 19.3512C21.7588 19.1639 21.6217 19.0025 21.4269 18.9423C17.816 18.6622 14.1839 18.6622 10.573 18.9423C10.3765 19.0031 10.2385 19.1669 10.2385 19.3564V19.9423L10.2385 19.9498V23.288C14.071 23.6038 17.9289 23.6038 21.7613 23.288V19.3512ZM26.7276 19.0527H23.7948V18.6577C23.7948 17.9199 23.1558 17.3021 22.3167 17.2286C22.1332 17.2126 21.9495 17.1972 21.7658 17.1826C21.6889 17.1689 21.6106 17.1582 21.5311 17.1507C17.8543 16.8041 14.1456 16.8041 10.4689 17.1507C10.3894 17.1582 10.3111 17.1689 10.2341 17.1826C10.0504 17.1972 9.86673 17.2126 9.68312 17.2286C8.84404 17.3021 8.20506 17.9199 8.20506 18.6577V19.0527H5.27227L5.21541 18.8523C4.52829 16.4308 4.52829 13.899 5.21541 11.4774C5.26218 11.3126 5.42133 11.1907 5.61423 11.1719L8.4371 10.8974C13.4635 10.4086 18.5364 10.4086 23.5628 10.8974L26.3857 11.1719C26.5786 11.1907 26.7377 11.3126 26.7845 11.4774C27.4716 13.899 27.4716 16.4308 26.7845 18.8523L26.7276 19.0527Z" fill="#7E7E7E"/>
</svg>
