<svg width="47" height="38" viewBox="0 0 47 38" fill="none" xmlns="http://www.w3.org/2000/svg">
<rect width="47" height="38" fill="white"/>
<ellipse cx="9.5" cy="11.75" rx="9.5" ry="11.75" transform="matrix(5.40641e-08 -1 -1 -3.53411e-08 39.1666 28.5)" fill="#7E869E" fill-opacity="0.25"/>
<path d="M15.3666 19C15.3666 13.5312 20.8243 9.2 27.4166 9.2C34.009 9.2 39.4666 13.5312 39.4666 19C39.4666 24.4688 34.0089 28.8 27.4166 28.8C20.8243 28.8 15.3666 24.4688 15.3666 19Z" stroke="#9F9F9E" stroke-opacity="0.25" stroke-width="0.6"/>
<path d="M15.6666 29.9696C18.0483 31.0813 20.7499 31.6666 23.5 31.6666C26.25 31.6666 28.9517 31.0813 31.3333 29.9696C33.7149 28.8578 35.6927 27.2588 37.0677 25.3333C38.4427 23.4077 39.1666 21.2234 39.1666 18.9999C39.1666 16.7765 38.4427 14.5922 37.0677 12.6666C35.6927 10.741 33.7149 9.142 31.3333 8.03026C28.9517 6.91853 26.25 6.33325 23.5 6.33325C20.7499 6.33325 18.0483 6.91853 15.6666 8.03026" stroke="#9F9F9E" stroke-width="1.2"/>
<path d="M3.91663 18.9999L3.49012 18.5779L3.07255 18.9999L3.49012 19.4219L3.91663 18.9999ZM21.5416 19.5999C21.873 19.5999 22.1416 19.3313 22.1416 18.9999C22.1416 18.6685 21.873 18.3999 21.5416 18.3999V19.5999ZM11.3235 10.6612L3.49012 18.5779L4.34313 19.4219L12.1765 11.5053L11.3235 10.6612ZM3.49012 19.4219L11.3235 27.3386L12.1765 26.4946L4.34313 18.5779L3.49012 19.4219ZM3.91663 19.5999H21.5416V18.3999H3.91663V19.5999Z" fill="#9F9F9E"/>
</svg>
