<svg width="47" height="38" viewBox="0 0 47 38" fill="none" xmlns="http://www.w3.org/2000/svg">
<rect width="47" height="38" fill="white"/>
<ellipse cx="9.5" cy="11.75" rx="9.5" ry="11.75" transform="matrix(5.40641e-08 -1 -1 -3.53411e-08 39.1666 28.5)" fill="#7E869E" fill-opacity="0.25"/>
<path d="M15.3666 19C15.3666 13.5312 20.8243 9.2 27.4166 9.2C34.009 9.2 39.4666 13.5312 39.4666 19C39.4666 24.4688 34.0089 28.8 27.4166 28.8C20.8243 28.8 15.3666 24.4688 15.3666 19Z" stroke="#9F9F9E" stroke-opacity="0.25" stroke-width="0.6"/>
<path d="M15.6666 29.9697C18.0483 31.0814 20.7499 31.6667 23.5 31.6667C26.25 31.6667 28.9517 31.0814 31.3333 29.9697C33.7149 28.858 35.6927 27.2589 37.0677 25.3334C38.4427 23.4078 39.1666 21.2235 39.1666 19C39.1666 16.7766 38.4427 14.5923 37.0677 12.6667C35.6927 10.7411 33.7149 9.14212 31.3333 8.03039C28.9517 6.91865 26.25 6.33337 23.5 6.33337C20.7499 6.33337 18.0483 6.91865 15.6666 8.03038" stroke="#9F9F9E" stroke-width="1.2"/>
<path d="M3.91663 19L3.49012 18.578L3.07255 19L3.49012 19.4221L3.91663 19ZM21.5416 19.6C21.873 19.6 22.1416 19.3314 22.1416 19C22.1416 18.6687 21.873 18.4 21.5416 18.4V19.6ZM11.3235 10.6614L3.49012 18.578L4.34313 19.4221L12.1765 11.5054L11.3235 10.6614ZM3.49012 19.4221L11.3235 27.3387L12.1765 26.4947L4.34313 18.578L3.49012 19.4221ZM3.91663 19.6H21.5416V18.4H3.91663V19.6Z" fill="#9F9F9E"/>
</svg>
