<svg width="47" height="57" viewBox="0 0 47 57" fill="none" xmlns="http://www.w3.org/2000/svg">
<path d="M23.5 8.90625C19.4441 8.90625 16.1562 12.8937 16.1562 17.8125C16.1562 22.7313 19.4441 26.7188 23.5 26.7188C27.5558 26.7188 30.8437 22.7313 30.8437 17.8125C30.8437 12.8937 27.5558 8.90625 23.5 8.90625Z" fill="#9E9F9E"/>
<path d="M15.6666 31.4688C11.6108 31.4688 8.32288 35.4562 8.32288 40.375V43.1972C8.32288 44.9861 9.3919 46.5114 10.8477 46.7997C19.2271 48.4588 27.7728 48.4588 36.1522 46.7997C37.608 46.5114 38.677 44.9861 38.677 43.1972V40.375C38.677 35.4562 35.3891 31.4688 31.3333 31.4688H30.6658C30.3045 31.4688 29.9454 31.538 29.602 31.674L27.907 32.3453C25.0434 33.4793 21.9565 33.4793 19.0929 32.3453L17.3979 31.674C17.0545 31.538 16.6955 31.4688 16.3342 31.4688H15.6666Z" fill="#9E9F9E"/>
</svg>
