<svg width="37" height="39" viewBox="0 0 37 39" fill="none" xmlns="http://www.w3.org/2000/svg">
<mask id="path-1-outside-1_96_535" maskUnits="userSpaceOnUse" x="0.625" y="0.875" width="36" height="38" fill="black">
<rect fill="white" x="0.625" y="0.875" width="36" height="38"/>
<path fill-rule="evenodd" clip-rule="evenodd" d="M18.5 37.125C27.8198 37.125 35.375 29.234 35.375 19.5C35.375 9.76598 27.8198 1.875 18.5 1.875C9.18019 1.875 1.625 9.76598 1.625 19.5C1.625 29.234 9.18019 37.125 18.5 37.125ZM18.5768 5.8616C18.5 5.93538 18.5 6.05414 18.5 6.29167V19.2176C18.5 19.3556 18.5 19.4245 18.4677 19.4818C18.4354 19.539 18.3763 19.5746 18.2582 19.6458L7.54577 26.1055C7.3494 26.2239 7.25122 26.2831 7.22623 26.3834C7.20124 26.4837 7.25871 26.5796 7.37366 26.7715C8.5107 28.6694 10.077 30.2499 11.9375 31.3718C13.9328 32.5749 16.1961 33.2083 18.5 33.2083C20.8039 33.2083 23.0672 32.5749 25.0625 31.3718C27.0578 30.1686 28.7146 28.4381 29.8666 26.3542C31.0185 24.2702 31.625 21.9063 31.625 19.5C31.625 17.0937 31.0185 14.7298 29.8666 12.6458C28.7146 10.5619 27.0578 8.83139 25.0625 7.62823C23.2118 6.51222 21.1304 5.88641 18.9999 5.80161C18.769 5.79242 18.6535 5.78783 18.5768 5.8616Z"/>
</mask>
<path fill-rule="evenodd" clip-rule="evenodd" d="M18.5 37.125C27.8198 37.125 35.375 29.234 35.375 19.5C35.375 9.76598 27.8198 1.875 18.5 1.875C9.18019 1.875 1.625 9.76598 1.625 19.5C1.625 29.234 9.18019 37.125 18.5 37.125ZM18.5768 5.8616C18.5 5.93538 18.5 6.05414 18.5 6.29167V19.2176C18.5 19.3556 18.5 19.4245 18.4677 19.4818C18.4354 19.539 18.3763 19.5746 18.2582 19.6458L7.54577 26.1055C7.3494 26.2239 7.25122 26.2831 7.22623 26.3834C7.20124 26.4837 7.25871 26.5796 7.37366 26.7715C8.5107 28.6694 10.077 30.2499 11.9375 31.3718C13.9328 32.5749 16.1961 33.2083 18.5 33.2083C20.8039 33.2083 23.0672 32.5749 25.0625 31.3718C27.0578 30.1686 28.7146 28.4381 29.8666 26.3542C31.0185 24.2702 31.625 21.9063 31.625 19.5C31.625 17.0937 31.0185 14.7298 29.8666 12.6458C28.7146 10.5619 27.0578 8.83139 25.0625 7.62823C23.2118 6.51222 21.1304 5.88641 18.9999 5.80161C18.769 5.79242 18.6535 5.78783 18.5768 5.8616Z" fill="#9E9E9F"/>
<path d="M18.2582 19.6458L18.7746 20.5022L18.7746 20.5022L18.2582 19.6458ZM7.54577 26.1055L7.02938 25.2492L7.02937 25.2492L7.54577 26.1055ZM7.22623 26.3834L6.2559 26.1416L6.2559 26.1416L7.22623 26.3834ZM7.37366 26.7715L6.51582 27.2854H6.51582L7.37366 26.7715ZM11.9375 31.3718L12.4539 30.5154L11.9375 31.3718ZM25.0625 31.3718L24.5461 30.5154L25.0625 31.3718ZM29.8666 26.3542L28.9914 25.8704L29.8666 26.3542ZM29.8666 12.6458L28.9914 13.1296L28.9914 13.1296L29.8666 12.6458ZM25.0625 7.62823L24.5461 8.48459V8.48459L25.0625 7.62823ZM18.9999 5.80161L18.9601 6.80082L18.9999 5.80161ZM34.375 19.5C34.375 28.7232 27.227 36.125 18.5 36.125V38.125C28.4126 38.125 36.375 29.7449 36.375 19.5H34.375ZM18.5 2.875C27.227 2.875 34.375 10.2768 34.375 19.5H36.375C36.375 9.25512 28.4126 0.875 18.5 0.875V2.875ZM2.625 19.5C2.625 10.2768 9.77302 2.875 18.5 2.875V0.875C8.58737 0.875 0.625 9.25512 0.625 19.5H2.625ZM18.5 36.125C9.77302 36.125 2.625 28.7232 2.625 19.5H0.625C0.625 29.7449 8.58737 38.125 18.5 38.125V36.125ZM19.5 6.29167C19.5 6.22842 19.5001 6.19075 19.5009 6.16089C19.5017 6.13052 19.5027 6.13389 19.5 6.15377C19.497 6.17455 19.4867 6.2382 19.4517 6.32007C19.4132 6.4101 19.3532 6.50237 19.2697 6.58264L17.8839 5.14057C17.6218 5.39243 17.5454 5.68978 17.5192 5.87669C17.4977 6.03064 17.5 6.20229 17.5 6.29167H19.5ZM19.5 19.2176V6.29167H17.5V19.2176H19.5ZM19.3384 19.9735C19.4471 19.7811 19.4794 19.599 19.4913 19.4765C19.5011 19.3756 19.5 19.2675 19.5 19.2176H17.5C17.5 19.2548 17.5 19.2748 17.4997 19.2902C17.4994 19.3054 17.4991 19.2996 17.5006 19.2834C17.5044 19.2442 17.5206 19.1252 17.5969 18.99L19.3384 19.9735ZM18.7746 20.5022C18.8173 20.4764 18.9104 20.4215 18.9918 20.361C19.0905 20.2876 19.2298 20.1659 19.3384 19.9735L17.5969 18.99C17.6733 18.8548 17.7668 18.7796 17.7984 18.756C17.8115 18.7463 17.8166 18.7436 17.8038 18.7517C17.7907 18.7599 17.7737 18.7702 17.7418 18.7895L18.7746 20.5022ZM8.06216 26.9619L18.7746 20.5022L17.7418 18.7895L7.02938 25.2492L8.06216 26.9619ZM8.19656 26.6252C8.16932 26.7345 8.12124 26.8298 8.06516 26.9061C8.014 26.9758 7.96608 27.0163 7.94974 27.0295C7.93416 27.042 7.93039 27.0431 7.95484 27.0275C7.97893 27.0121 8.00981 26.9934 8.06216 26.9619L7.02937 25.2492C6.95574 25.2936 6.8117 25.3778 6.69372 25.4731C6.55041 25.5887 6.34108 25.7998 6.2559 26.1416L8.19656 26.6252ZM8.23149 26.2576C8.20076 26.2063 8.18308 26.1766 8.16975 26.153C8.15624 26.129 8.15987 26.1332 8.16835 26.1532C8.17733 26.1745 8.20068 26.2338 8.21281 26.3201C8.22606 26.4143 8.22297 26.5192 8.19656 26.6252L6.2559 26.1416C6.172 26.4783 6.25333 26.7599 6.32659 26.9329C6.38584 27.0729 6.47331 27.2144 6.51582 27.2854L8.23149 26.2576ZM12.4539 30.5154C10.7366 29.4799 9.28635 28.0183 8.23149 26.2576L6.51582 27.2854C7.73506 29.3205 9.41736 31.0198 11.4211 32.2281L12.4539 30.5154ZM18.5 32.2083C16.3802 32.2083 14.2951 31.6257 12.4539 30.5154L11.4211 32.2281C13.5704 33.5241 16.0119 34.2083 18.5 34.2083V32.2083ZM24.5461 30.5154C22.7049 31.6257 20.6198 32.2083 18.5 32.2083V34.2083C20.9881 34.2083 23.4296 33.5241 25.5789 32.2281L24.5461 30.5154ZM28.9914 25.8704C27.9223 27.8043 26.3877 29.4049 24.5461 30.5154L25.5789 32.2281C27.7278 30.9323 29.5069 29.0719 30.7418 26.838L28.9914 25.8704ZM30.625 19.5C30.625 21.739 30.0606 23.9362 28.9914 25.8704L30.7418 26.838C31.9765 24.6043 32.625 22.0737 32.625 19.5H30.625ZM28.9914 13.1296C30.0606 15.0638 30.625 17.261 30.625 19.5H32.625C32.625 16.9263 31.9765 14.3957 30.7418 12.162L28.9914 13.1296ZM24.5461 8.48459C26.3877 9.59511 27.9223 11.1957 28.9914 13.1296L30.7418 12.162C29.5069 9.92814 27.7278 8.06768 25.5789 6.77188L24.5461 8.48459ZM18.9601 6.80082C20.9205 6.87885 22.8382 7.45467 24.5461 8.48459L25.5789 6.77188C23.5854 5.56977 21.3403 4.89398 19.0397 4.8024L18.9601 6.80082ZM19.2697 6.58264C19.189 6.66021 19.0966 6.71632 19.0049 6.75194C18.9212 6.78447 18.856 6.79286 18.8329 6.79525C18.8109 6.7975 18.8057 6.79628 18.8344 6.79665C18.8626 6.79701 18.8984 6.79836 18.9601 6.80082L19.0397 4.8024C18.9541 4.799 18.7833 4.7898 18.6282 4.80574C18.4362 4.8255 18.1416 4.89289 17.8839 5.14057L19.2697 6.58264Z" fill="#9E9E9F" mask="url(#path-1-outside-1_96_535)"/>
</svg>
