<svg width="27" height="27" viewBox="0 0 27 27" fill="none" xmlns="http://www.w3.org/2000/svg">
<path d="M23.0866 13.958L12.675 22.9098C9.96943 25.2482 6.32893 25.0169 4.00581 22.9951C1.66853 20.9977 1.39938 17.8919 4.10497 15.5535L18.3129 3.34979C19.9418 1.94917 22.3358 1.7543 23.894 3.08184C25.438 4.43375 25.2114 6.47988 23.5966 7.88051L9.71445 19.8163C9.02035 20.4374 8.17043 20.2547 7.68881 19.8406C7.20718 19.4143 7.00887 18.708 7.70297 18.0868L17.4063 9.76831C17.8312 9.39075 17.8596 8.85486 17.4487 8.50166C17.038 8.16063 16.4147 8.18499 15.9897 8.55037L6.25811 16.9176C4.81323 18.1599 4.8699 20.0598 6.14479 21.156C7.53298 22.3496 9.62946 22.3252 11.0885 21.0707L25.0273 9.08627C27.6762 6.80873 27.5628 3.81261 25.2539 1.82737C23.0016 -0.109145 19.4602 -0.255297 16.8113 2.02224L2.53261 14.3112C-0.966232 17.3195 -0.69709 21.6188 2.46179 24.3348C5.62066 27.0386 10.621 27.27 14.1199 24.2739L24.6023 15.2612C25.013 14.908 25.013 14.2625 24.5881 13.9336C24.1772 13.5561 23.5116 13.6048 23.0866 13.958Z" fill="#757575"/>
</svg>
