<svg width="17" height="16" viewBox="0 0 17 16" fill="none" xmlns="http://www.w3.org/2000/svg">
<path d="M7.49188 0.351991C3.8634 0.351991 0.911743 3.25568 0.911743 6.82519C0.911743 10.3947 3.8634 13.2984 7.49188 13.2984C8.6011 13.2984 9.69152 13.0395 10.6127 12.5401C10.6865 12.6274 10.7683 12.7079 10.8571 12.7805L12.7372 14.63C12.9108 14.8222 13.1225 14.9774 13.3593 15.0862C13.596 15.1949 13.8529 15.2549 14.1142 15.2625C14.3754 15.2701 14.6354 15.225 14.8783 15.1302C15.1212 15.0353 15.3418 14.8926 15.5266 14.7108C15.7113 14.529 15.8564 14.312 15.9528 14.073C16.0493 13.8341 16.0951 13.5783 16.0874 13.3213C16.0797 13.0644 16.0187 12.8117 15.9081 12.5787C15.7976 12.3458 15.6398 12.1375 15.4444 11.9668L13.5644 10.1173C13.4728 10.0271 13.372 9.94657 13.2636 9.87683C13.7712 8.97059 14.0908 7.91638 14.0908 6.80669C14.0908 3.23719 11.1392 0.333496 7.51068 0.333496L7.49188 0.351991ZM7.49188 2.20148C10.1051 2.20148 12.192 4.2544 12.192 6.82519C12.192 8.04584 11.7408 9.17403 10.9511 10.0063C10.9323 10.0248 10.9135 10.0433 10.8947 10.0618C10.8059 10.1344 10.7241 10.2149 10.6503 10.3022C9.82312 11.042 8.6951 11.4674 7.47308 11.4674C4.85982 11.4674 2.77298 9.41446 2.77298 6.84368C2.77298 4.2729 4.85982 2.21997 7.47308 2.21997L7.49188 2.20148Z" fill="#9E9F9E"/>
</svg>
